<svg width="96" height="96" xmlns="http://www.w3.org/2000/svg" xmlns:xlink="http://www.w3.org/1999/xlink" xml:space="preserve" overflow="hidden"><g transform="translate(-398 -279)"><path d="M484.3 323.3C483.3 321.3 482 319.5 480.6 317.8 472.3 308.3 457.2 308 457.2 308L428 308 428 293C423.8 297.1 423.9 296.1 404 316 404.1 316 423.9 336.9 428 341L428 325.6 457.1 325.6C457.1 325.6 471 325.6 471 338.8 471 353.3 447 353 447 353L408 356C408 356 435.5 360.5 461.1 360.2 480 360 492.8 340.2 484.3 323.3Z" fill="#FFFFFF"/></g></svg>