<svg width="112" height="112" xmlns="http://www.w3.org/2000/svg" xmlns:xlink="http://www.w3.org/1999/xlink" xml:space="preserve" overflow="hidden"><g transform="translate(-186 -142)"><path d="M194.167 213.167 281.387 213.167 271.027 202.807C269.709 201.392 269.787 199.178 271.201 197.86 272.545 196.607 274.629 196.607 275.973 197.86L292.307 214.193C293.671 215.56 293.671 217.773 292.307 219.14L275.973 235.473C274.607 236.838 272.393 236.838 271.027 235.473 269.662 234.107 269.662 231.893 271.027 230.527L281.387 220.167 194.167 220.167C192.234 220.167 190.667 218.6 190.667 216.667 190.667 214.734 192.234 213.167 194.167 213.167Z" fill="#215F9A"/><path d="M289.833 175.833 202.613 175.833 212.973 165.473C214.388 164.156 214.466 161.941 213.148 160.527 211.83 159.112 209.615 159.034 208.201 160.352 208.141 160.408 208.083 160.466 208.027 160.527L191.693 176.86C190.329 178.227 190.329 180.44 191.693 181.807L208.027 198.14C209.393 199.505 211.607 199.505 212.973 198.14 214.338 196.773 214.338 194.56 212.973 193.193L202.613 182.833 289.833 182.833C291.766 182.833 293.333 181.266 293.333 179.333 293.333 177.4 291.766 175.833 289.833 175.833Z" fill="#215F9A"/></g></svg>