<svg width="113" height="113" xmlns="http://www.w3.org/2000/svg" xmlns:xlink="http://www.w3.org/1999/xlink" xml:space="preserve" overflow="hidden"><g transform="translate(-704 -202)"><path d="M808.632 202 746.169 202C741.717 202 738.096 205.622 738.096 210.073L738.096 229.021 745.466 229.021 745.466 210.073C745.466 209.685 745.781 209.37 746.169 209.37L808.632 209.37C809.019 209.37 809.335 209.685 809.335 210.073L809.335 272.536C809.335 272.924 809.019 273.239 808.632 273.239L790.274 273.239 790.274 280.609 808.632 280.609C813.083 280.609 816.705 276.987 816.705 272.536L816.705 210.073C816.704 205.622 813.083 202 808.632 202Z" fill="#FFFFFF"/><path d="M774.831 236.391 712.369 236.391C707.917 236.391 704.296 240.012 704.296 244.464L704.296 306.927C704.296 311.378 707.917 315 712.369 315L774.831 315C779.283 315 782.905 311.378 782.905 306.927L782.905 244.464C782.905 240.012 779.283 236.391 774.831 236.391ZM774.832 307.63 712.369 307.63C711.981 307.63 711.665 307.315 711.665 306.927L711.665 244.464C711.665 244.076 711.981 243.76 712.369 243.76L774.831 243.76C775.219 243.76 775.535 244.076 775.535 244.464L775.535 306.927 775.535 306.927C775.535 307.315 775.219 307.63 774.832 307.63Z" fill="#FFFFFF"/></g></svg>