<svg width="96" height="96" xmlns="http://www.w3.org/2000/svg" xmlns:xlink="http://www.w3.org/1999/xlink" xml:space="preserve" overflow="hidden"><g transform="translate(-194 -270)"><path d="M279.5 345.6 267 333.1C265.3 331.4 263 330.8 260.8 331.2L256.4 326.8C260.3 321.8 262.6 315.4 262.6 308.6 262.6 292.1 249.1 278.6 232.6 278.6 216.1 278.6 202.6 292.1 202.6 308.6 202.6 325.1 216.1 338.6 232.6 338.6 239.4 338.6 245.7 336.3 250.8 332.4L255.2 336.8C254.8 339 255.4 341.3 257.1 343L269.6 355.5C271 356.9 272.8 357.6 274.6 357.6 276.4 357.6 278.2 356.9 279.6 355.5 282.2 352.7 282.2 348.3 279.5 345.6ZM232.5 332.5C219.3 332.5 208.5 321.7 208.5 308.5 208.5 295.3 219.3 284.5 232.5 284.5 245.7 284.5 256.5 295.3 256.5 308.5 256.5 321.7 245.7 332.5 232.5 332.5Z" fill="#FFFFFF"/></g></svg>