<svg width="96" height="96" xmlns="http://www.w3.org/2000/svg" xmlns:xlink="http://www.w3.org/1999/xlink" xml:space="preserve" overflow="hidden"><g transform="translate(-256 -60)"><path d="M260.1 104.2 265.6 89.8C265.8 89.2 266.2 88.7 266.6 88.3L269.5 85.4 268 83.8C267.2 83 267.2 81.6 268 80.8L271.1 77.7C271.9 76.9 273.3 76.9 274.1 77.7L275.7 79.2 284.6 70.3C285.4 69.5 286.8 69.5 287.6 70.3L297.3 80.1C298.1 80.9 298.1 82.3 297.3 83.1L288.7 91.8 338.5 139.4C339.3 140.2 339.3 141.6 338.5 142.4L332.6 148.3C331.8 149.1 330.4 149.1 329.6 148.3L282 98.5 279.5 101C279 101.5 278.4 101.8 277.8 102L262.8 106.9C262 107.1 261.2 106.9 260.6 106.3 260 105.8 259.8 104.9 260.1 104.2Z" fill="#FFFFFF"/><path d="M320.1 88.4 307.1 79.8C306.6 79.4 306.3 78.9 306.2 78.3 306.2 77.7 306.4 77.1 306.8 76.6L315.8 67.7C316.5 67 317.7 66.9 318.5 67.5L333.8 77.7C333.9 77.7 334 77.8 334 77.9L334.1 78 337 80.9 337.2 81.1 337.3 81.2 337.3 81.3 347.6 96.3C348.2 97.1 348.1 98.3 347.4 99L338.4 107.9C338 108.3 337.3 108.6 336.7 108.5 336.1 108.4 335.5 108.1 335.1 107.6L326.7 95 313.1 109.2 305.7 102.1 320.1 88.4Z" fill="#FFFFFF"/><path d="M275.7 148.3C274.9 149.1 273.5 149.1 272.7 148.3L266.7 142.3C265.9 141.5 265.9 140.1 266.7 139.3L292 115.2 299.7 123.2 275.7 148.3Z" fill="#FFFFFF"/></g></svg>