<svg width="96" height="96" xmlns="http://www.w3.org/2000/svg" xmlns:xlink="http://www.w3.org/1999/xlink" xml:space="preserve" overflow="hidden"><g transform="translate(-574 -49)"><path d="M607 79.8C607 84.7706 602.971 88.8 598 88.8 593.029 88.8 589 84.7706 589 79.8 589 74.8294 593.029 70.8 598 70.8 602.971 70.8 607 74.8294 607 79.8Z" fill="#FFFFFF"/><path d="M655 79.8C655 84.7706 650.971 88.8 646 88.8 641.029 88.8 637 84.7706 637 79.8 637 74.8294 641.029 70.8 646 70.8 650.971 70.8 655 74.8294 655 79.8Z" fill="#FFFFFF"/><path d="M640 123.2 640 114.2C640 112.8 639.4 111.4 638.2 110.6 635.8 108.6 632.6 107.2 629.4 106.4 627.2 105.8 624.6 105.2 622 105.2 619.6 105.2 617 105.6 614.6 106.4 611.4 107.2 608.4 108.8 605.8 110.6 604.6 111.6 604 112.8 604 114.2L604 123.2 640 123.2Z" fill="#FFFFFF"/><path d="M631 93.8C631 98.7706 626.971 102.8 622 102.8 617.029 102.8 613 98.7706 613 93.8 613 88.8294 617.029 84.8 622 84.8 626.971 84.8 631 88.8294 631 93.8Z" fill="#FFFFFF"/><path d="M662.2 96.6C659.8 94.6 656.6 93.2 653.4 92.4 651.2 91.8 648.6 91.2 646 91.2 643.6 91.2 641 91.6 638.6 92.4 637.4 92.8 636.2 93.2 635 93.8L635 94C635 97.4 633.6 100.6 631.4 102.8 635.2 104 638.2 105.6 640.6 107.4 641.2 108 641.8 108.4 642.2 109.2L664 109.2 664 100.2C664 98.8 663.4 97.4 662.2 96.6Z" fill="#FFFFFF"/><path d="M603.4 107.4 603.4 107.4C606.2 105.4 609.4 103.8 612.6 102.8 610.4 100.4 609 97.4 609 94 609 93.8 609 93.8 609 93.6 607.8 93.2 606.6 92.6 605.4 92.4 603.2 91.8 600.6 91.2 598 91.2 595.6 91.2 593 91.6 590.6 92.4 587.4 93.4 584.4 94.8 581.8 96.6 580.6 97.4 580 98.8 580 100.2L580 109.2 601.6 109.2C602.2 108.4 602.6 108 603.4 107.4Z" fill="#FFFFFF"/></g></svg>