<svg width="96" height="96" xmlns="http://www.w3.org/2000/svg" xmlns:xlink="http://www.w3.org/1999/xlink" xml:space="preserve" overflow="hidden"><g transform="translate(-386 -55)"><path d="M413 121C413 124.866 409.866 128 406 128 402.134 128 399 124.866 399 121 399 117.134 402.134 114 406 114 409.866 114 413 117.134 413 121Z" fill="#FFFFFF"/><path d="M471 121C471 124.866 467.866 128 464 128 460.134 128 457 124.866 457 121 457 117.134 460.134 114 464 114 467.866 114 471 117.134 471 121Z" fill="#FFFFFF"/><path d="M390 79 446 79 446 103 390 103Z" fill="#FFFFFF"/><path d="M454 89 460 89C461.8 89 463.4 90.2 463.8 91.9L465.8 98.8C465.8 98.9 465.9 98.9 465.9 99L454 99 454 89ZM460 85 450 85 450 99 450 105 450 121 454 121C454 115.5 458.5 111 464 111 469.5 111 474 115.5 474 121 476.2 121 478 119.2 478 117L478 107C478 105.7 477.4 104.6 476.4 103.8L471.1 99.8C470.4 99.3 469.9 98.5 469.7 97.7L467.7 90.8C466.7 87.4 463.5 85 460 85Z" fill="#FFFFFF"/><path d="M446 121 416 121C416 115.5 411.5 111 406 111 400.5 111 396 115.5 396 121L390 121 390 107 446 107 446 121Z" fill="#FFFFFF"/></g></svg>